<svg xmlns="http://www.w3.org/2000/svg" width="400" height="400" viewBox="0 0 400 400">
<g>
<path d="M 206.90 367.85 C204.22,369.32 202.63,370.29 200.92,370.89 C197.65,372.04 193.91,371.86 181.28,371.26 C179.96,371.19 178.53,371.12 177.00,371.05 C163.05,370.40 160.40,369.46 151.47,362.07 C148.74,359.80 144.93,357.55 143.00,357.07 C132.16,354.36 128.62,353.74 119.92,353.02 C109.58,352.18 101.90,349.55 100.13,346.25 C99.92,345.84 99.74,345.52 99.66,345.17 C99.34,343.74 100.71,341.93 107.85,332.51 L 107.95 332.38 C115.03,323.02 137.38,301.00 139.79,301.00 C140.94,301.00 142.17,300.54 142.51,299.98 C143.74,297.99 152.62,294.22 161.00,292.12 C171.65,289.45 184.38,283.34 189.14,278.61 C192.37,275.39 192.90,274.13 193.93,267.09 C195.16,258.62 194.85,253.57 192.38,242.49 C190.88,235.75 190.61,235.34 185.66,232.02 C182.82,230.12 180.13,228.55 179.67,228.53 C179.21,228.51 178.18,227.60 177.38,226.50 C176.33,225.06 174.66,224.47 171.48,224.38 C169.04,224.31 165.89,223.50 164.49,222.58 C163.09,221.67 160.72,220.91 159.22,220.91 C155.29,220.91 149.00,222.11 149.00,222.86 C149.00,224.04 143.52,223.56 142.17,222.26 C141.44,221.56 140.49,221.20 140.07,221.46 C139.65,221.72 138.38,221.08 137.26,220.03 C136.00,218.85 134.42,218.34 133.11,218.68 C131.81,219.02 131.00,218.76 131.00,218.00 C131.00,217.20 130.05,216.95 128.26,217.29 C124.42,218.02 119.01,212.49 118.99,207.80 C118.98,205.98 118.29,201.61 117.46,198.07 C116.49,193.97 116.16,189.63 116.55,186.07 C117.17,180.45 115.33,163.46 112.50,148.66 C108.44,127.43 112.57,108.18 123.32,98.27 C127.90,94.05 136.69,89.00 139.47,89.00 C141.54,89.00 141.40,87.45 138.82,82.12 C137.61,79.64 136.47,75.33 136.28,72.55 C135.96,68.06 136.31,66.98 139.42,62.82 C146.94,52.76 161.53,43.30 178.50,37.49 C193.37,32.40 217.09,33.21 230.20,39.25 C236.87,42.33 245.25,49.84 248.73,55.87 C250.20,58.41 251.65,60.72 251.95,61.00 C252.25,61.28 252.51,61.95 252.51,62.50 C252.54,64.62 257.41,82.67 258.85,86.00 C259.69,87.93 260.29,89.84 260.19,90.25 C260.08,90.66 260.45,91.00 261.00,91.00 C261.55,91.00 262.00,91.68 262.00,92.50 C262.00,93.32 262.48,94.00 263.06,94.00 C263.64,94.00 263.87,94.40 263.56,94.90 C262.95,95.89 271.16,103.49 277.47,107.76 C279.69,109.26 281.86,111.06 282.30,111.75 C282.74,112.44 283.67,113.00 284.36,113.00 C285.91,113.00 291.00,118.18 291.00,119.76 C291.00,120.39 291.64,121.26 292.43,121.70 C293.21,122.14 293.91,122.83 293.97,123.23 C294.04,123.63 295.24,126.46 296.63,129.51 C300.81,138.64 301.03,143.21 297.73,152.50 C296.17,156.90 294.84,161.06 294.78,161.75 C294.72,162.44 294.27,163.00 293.77,163.00 C293.28,163.00 293.13,163.40 293.44,163.90 C293.74,164.39 293.29,165.06 292.43,165.39 C291.57,165.72 291.16,166.44 291.50,167.00 C291.84,167.56 291.42,168.28 290.56,168.61 C289.70,168.94 289.00,169.62 289.00,170.11 C289.00,170.61 287.09,172.99 284.75,175.40 C282.41,177.82 280.03,180.41 279.46,181.15 C278.83,181.98 278.56,187.40 278.78,195.13 C279.11,207.29 279.03,207.86 276.74,210.34 C275.32,211.87 273.58,212.75 272.43,212.52 C271.37,212.31 266.45,211.63 261.50,211.01 C253.25,209.98 251.92,210.06 245.50,212.03 C241.65,213.21 235.60,214.98 232.06,215.96 C226.39,217.52 225.26,218.26 222.62,222.12 C220.97,224.53 217.24,228.98 214.32,232.00 C210.97,235.48 208.79,238.71 208.39,240.81 C207.41,245.94 208.57,273.15 209.92,276.48 C210.58,278.12 211.66,279.79 212.31,280.19 C212.97,280.60 213.50,281.35 213.50,281.87 C213.50,282.38 214.80,284.01 216.39,285.49 C218.79,287.71 219.87,288.06 222.72,287.52 C224.82,287.13 226.71,287.34 227.58,288.07 C228.80,289.08 228.72,289.51 226.99,291.01 C224.99,292.74 225.02,292.79 229.11,294.43 C231.38,295.34 233.49,295.84 233.79,295.55 C234.08,295.25 232.90,294.51 231.16,293.91 C229.42,293.30 228.00,292.40 228.00,291.90 C228.00,290.62 229.37,290.78 230.95,292.25 C232.04,293.27 232.19,293.19 231.71,291.83 C231.37,290.87 231.73,289.93 232.56,289.61 C233.35,289.31 234.06,289.50 234.12,290.03 C234.19,290.56 234.31,291.52 234.38,292.15 C234.51,293.42 236.33,293.87 242.75,294.23 C245.09,294.36 247.00,294.80 247.00,295.20 C247.00,295.61 247.62,295.70 248.37,295.41 C249.12,295.12 250.01,295.59 250.34,296.44 C250.67,297.30 250.50,298.00 249.97,298.00 C247.81,298.00 249.19,300.01 251.75,300.61 C256.43,301.70 269.82,310.08 273.82,314.42 C275.91,316.69 279.05,321.96 280.78,326.13 C286.33,339.46 289.19,344.40 293.87,348.75 L 298.45 352.99 L 296.30 355.14 C293.91,357.53 290.51,357.76 276.38,356.49 C267.19,355.66 263.40,356.54 255.64,361.31 C249.65,365.00 243.87,365.66 234.50,363.72 C223.98,361.55 216.27,362.70 206.90,367.85 ZM 194.16 235.92 C197.55,237.61 200.94,239.00 201.71,239.00 C206.97,239.00 217.04,228.58 229.26,210.47 C238.47,196.83 239.99,194.48 241.93,194.08 C242.33,194.00 242.75,194.00 243.26,194.00 C243.34,194.00 243.43,194.00 243.52,194.00 C247.02,194.00 255.05,188.94 258.28,184.69 C263.21,178.24 268.33,166.30 269.52,158.50 C270.84,149.88 270.99,143.07 269.91,140.69 C268.61,137.86 260.26,134.00 255.40,134.00 C254.02,134.00 253.13,133.59 253.44,133.09 C253.75,132.59 253.73,131.45 253.39,130.56 C252.83,129.11 252.41,129.15 249.32,130.97 C245.19,133.41 243.66,133.51 241.94,131.43 C239.11,128.01 233.25,126.00 226.29,126.05 C218.42,126.10 215.68,127.14 210.23,132.12 C205.41,136.53 204.94,137.27 204.30,141.31 C204.03,143.07 203.45,144.73 203.02,145.00 C202.58,145.27 201.97,146.40 201.65,147.50 C201.33,148.60 201.29,147.54 201.56,145.15 C202.45,137.34 207.96,129.67 214.96,126.52 C219.52,124.46 219.84,123.35 215.39,125.04 C213.80,125.65 212.46,126.00 212.40,125.82 C212.35,125.64 211.60,126.08 210.74,126.80 C209.66,127.69 208.97,127.76 208.51,127.02 C208.15,126.43 208.45,126.07 209.18,126.23 C209.90,126.38 210.39,125.94 210.25,125.25 C210.11,124.56 210.45,124.00 211.00,124.00 C211.55,124.00 212.00,124.55 212.00,125.22 C212.00,125.89 212.70,125.44 213.56,124.22 C214.41,123.00 215.76,122.00 216.56,122.00 C217.35,122.00 218.00,121.50 218.00,120.88 C218.00,120.26 218.88,120.00 220.00,120.29 C221.21,120.61 221.75,120.41 221.38,119.80 C220.97,119.15 221.59,119.06 223.12,119.57 C224.43,120.00 226.62,120.30 228.00,120.25 C229.38,120.19 229.93,120.38 229.24,120.66 C228.55,120.94 228.17,121.47 228.40,121.84 C228.62,122.20 227.66,122.57 226.25,122.65 C224.41,122.76 224.08,122.56 225.10,121.92 C226.23,121.20 226.16,121.03 224.75,121.02 C223.79,121.01 223.00,121.42 223.00,121.93 C223.00,122.44 222.21,123.06 221.25,123.31 C220.29,123.56 221.77,123.82 224.55,123.88 C229.40,124.00 229.65,123.87 230.80,120.68 C232.42,116.19 232.37,116.00 229.48,116.00 C225.72,116.00 216.45,119.50 211.06,122.96 C206.08,126.16 202.00,126.92 202.00,124.65 C202.00,120.80 214.49,114.91 224.16,114.22 C227.92,113.95 231.00,113.45 231.00,113.12 C231.00,112.08 216.85,106.14 210.54,104.52 C202.09,102.36 197.12,102.62 188.30,105.67 C181.12,108.14 180.11,108.25 174.04,107.22 C170.34,106.58 164.53,104.55 160.68,102.54 C154.03,99.07 151.31,98.76 152.40,101.60 C152.70,102.37 152.59,103.00 152.17,103.00 C151.24,103.00 149.19,115.87 149.76,118.15 C150.12,119.56 151.29,119.72 157.84,119.28 C164.52,118.83 166.32,119.10 171.92,121.38 C178.80,124.18 182.00,126.50 182.00,128.65 C182.00,130.81 180.04,130.25 173.06,126.10 C164.43,120.98 159.23,119.59 153.97,121.01 L 149.94 122.09 L 153.20 126.63 C156.00,130.53 159.42,134.11 157.72,131.36 C156.97,130.15 168.44,131.35 172.33,132.89 C173.89,133.51 175.59,133.75 176.11,133.43 C176.63,133.11 176.99,133.22 176.91,133.68 C176.55,135.70 177.11,136.15 178.52,134.98 C179.82,133.91 179.94,134.00 179.34,135.61 C178.68,137.35 178.78,137.38 180.56,136.00 C182.36,134.61 182.40,134.63 181.13,136.25 C180.37,137.21 180.04,138.00 180.38,138.00 C181.92,138.00 182.58,138.24 183.74,139.20 C184.42,139.76 184.72,140.65 184.40,141.16 C184.09,141.67 184.55,143.19 185.44,144.54 C188.16,148.70 185.69,147.14 182.50,142.69 C176.33,134.08 163.42,130.56 154.24,135.00 C151.96,136.10 149.70,137.00 149.22,137.00 C148.74,137.00 147.30,138.12 146.01,139.49 C144.27,141.34 143.35,141.70 142.38,140.90 C141.67,140.31 140.61,140.12 140.03,140.48 C138.55,141.40 139.90,143.25 141.57,142.61 C142.32,142.32 143.24,142.58 143.61,143.18 C144.06,143.91 143.25,144.12 141.14,143.81 C139.41,143.55 138.00,143.73 138.00,144.21 C138.00,144.68 136.01,145.92 133.57,146.97 C131.14,148.01 127.47,150.44 125.43,152.37 L 121.71 155.88 L 122.46 165.19 C122.87,170.31 123.26,175.29 123.32,176.25 C123.38,177.21 123.81,178.00 124.27,178.00 C124.74,178.00 124.88,178.38 124.59,178.85 C124.31,179.32 125.07,180.77 126.28,182.08 C127.50,183.39 128.40,184.77 128.28,185.15 C128.15,185.54 129.63,187.12 131.56,188.67 C133.49,190.23 136.97,193.13 139.29,195.12 C143.77,198.97 149.04,202.00 151.24,202.00 C151.97,202.00 154.79,204.25 157.50,207.00 C160.21,209.75 162.72,212.00 163.08,212.00 C163.43,212.00 166.72,214.93 170.39,218.50 C174.05,222.07 177.52,225.00 178.10,225.00 C178.68,225.00 180.50,226.35 182.15,228.00 C183.80,229.65 185.79,231.00 186.58,231.00 C187.36,231.00 188.00,231.41 188.00,231.92 C188.00,232.43 190.77,234.23 194.16,235.92 ZM 186.50 325.51 C199.65,328.42 227.02,326.71 242.17,322.03 C248.71,320.01 264.00,310.93 264.00,309.06 C264.00,307.04 255.14,303.06 245.21,300.63 C239.54,299.24 232.34,296.88 229.21,295.39 C226.07,293.90 223.15,292.63 222.71,292.59 C222.28,292.54 221.54,291.87 221.06,291.10 C220.53,290.24 219.50,289.98 218.38,290.41 C216.83,291.00 216.78,291.25 218.03,292.02 C218.84,292.52 219.50,293.30 219.50,293.75 C219.50,294.20 220.96,296.13 222.75,298.04 C224.53,299.94 225.97,301.95 225.95,302.50 C225.87,304.58 216.89,293.32 213.64,287.05 C209.51,279.08 208.13,274.92 206.57,265.64 C205.70,260.47 204.92,258.42 203.74,258.19 C202.51,257.95 202.15,258.57 202.30,260.69 C202.44,262.61 202.02,263.50 201.00,263.50 C200.04,263.50 199.54,262.61 199.62,261.00 C199.74,258.47 198.27,256.72 196.79,257.63 C196.34,257.91 196.03,259.34 196.10,260.82 C196.16,262.29 195.72,265.92 195.11,268.87 C192.08,283.60 188.04,291.71 179.87,299.50 L 174.62 304.50 L 179.56 298.93 C184.42,293.46 190.65,283.32 189.72,282.39 C189.09,281.76 181.00,285.02 181.00,285.91 C181.00,286.29 179.43,287.17 177.50,287.86 C175.57,288.56 174.00,289.45 174.00,289.85 C174.00,290.25 173.21,290.61 172.25,290.66 C169.73,290.78 151.74,295.71 148.63,297.12 C147.18,297.78 146.00,298.65 146.00,299.04 C146.00,299.44 145.05,300.01 143.89,300.32 C142.74,300.62 141.95,301.29 142.14,301.81 C143.04,304.19 149.95,310.74 152.82,311.93 C154.57,312.65 156.00,313.64 156.00,314.12 C156.00,314.60 156.50,315.00 157.11,315.00 C157.72,315.00 160.98,316.31 164.36,317.90 C171.88,321.46 178.61,323.77 186.50,325.51 ZM 249.40 188.50 C245.96,190.84 243.00,191.73 243.00,190.43 C243.00,190.12 244.32,187.95 245.92,185.61 C252.97,175.37 258.00,162.31 258.00,154.25 C258.00,150.10 257.86,149.88 255.35,150.18 C253.12,150.45 252.47,151.29 251.28,155.40 C250.49,158.09 249.17,161.33 248.34,162.60 C247.51,163.87 247.12,165.39 247.49,165.98 C247.85,166.57 247.55,166.93 246.82,166.77 C246.10,166.62 245.61,167.06 245.75,167.75 C245.89,168.44 245.66,168.91 245.25,168.79 C244.84,168.68 243.01,169.38 241.18,170.36 C238.76,171.65 238.13,172.45 238.87,173.35 C240.54,175.36 238.47,177.29 233.84,178.05 L 229.50 178.75 L 234.00 178.89 C237.30,178.99 238.10,179.29 237.00,180.00 C232.29,183.04 219.66,179.20 212.13,172.42 C206.81,167.65 201.95,159.24 202.08,155.05 C202.14,152.99 202.44,153.31 203.66,156.75 C204.49,159.09 205.58,161.00 206.08,161.00 C206.59,161.00 207.00,161.62 207.00,162.38 C207.00,165.09 215.23,170.84 221.55,172.55 C227.22,174.09 228.17,174.09 233.14,172.65 C239.87,170.69 246.23,165.38 248.44,159.87 C250.80,153.97 250.64,145.23 248.08,139.93 C246.94,137.56 246.00,135.56 246.00,135.48 C246.00,134.61 250.50,136.00 250.82,136.97 C251.06,137.69 250.79,137.99 250.22,137.64 C249.59,137.25 249.38,137.75 249.69,138.93 C249.99,140.07 250.77,140.64 251.59,140.33 C252.36,140.03 252.74,139.39 252.44,138.91 C252.14,138.42 252.64,138.31 253.55,138.66 C254.46,139.01 255.56,138.71 256.00,138.00 C256.52,137.17 257.45,137.00 258.65,137.52 C259.67,137.96 260.73,138.37 261.00,138.43 C261.27,138.48 263.00,139.15 264.83,139.92 L 268.16 141.31 L 267.50 149.40 C266.37,163.34 263.09,172.95 256.53,181.55 C255.19,183.31 254.37,185.03 254.71,185.38 C255.05,185.72 254.83,186.00 254.21,186.00 C253.59,186.00 251.43,187.12 249.40,188.50 ZM 145.37 194.75 C147.03,196.54 147.94,198.00 147.38,198.00 C146.21,198.00 141.60,193.20 140.64,191.00 C140.29,190.18 137.63,186.06 134.75,181.85 C125.74,168.72 125.01,167.10 124.64,159.58 C124.53,157.18 125.34,156.07 129.27,153.23 C133.29,150.33 134.28,149.99 135.59,151.08 C136.87,152.14 137.31,152.12 138.01,150.98 C138.48,150.22 138.65,149.24 138.38,148.80 C138.10,148.36 138.32,148.00 138.86,148.00 C140.37,148.00 140.72,150.09 139.92,154.46 C139.51,156.67 139.59,159.24 140.09,160.17 C140.59,161.10 141.00,162.96 141.00,164.28 C141.00,170.86 151.99,179.50 161.83,180.66 C175.47,182.27 186.92,171.81 186.98,157.69 C186.99,154.08 187.38,152.12 188.00,152.50 C189.51,153.43 189.20,160.06 187.39,165.36 C185.27,171.59 177.54,179.92 170.84,183.20 C164.57,186.27 157.29,187.96 158.46,186.07 C158.91,185.34 158.67,184.94 157.85,185.07 C157.11,185.18 154.95,184.91 153.05,184.47 C150.12,183.79 149.89,183.55 151.55,182.90 C152.62,182.48 152.92,182.11 152.21,182.07 C151.50,182.03 150.37,181.53 149.71,180.97 C149.04,180.40 147.60,179.25 146.50,178.41 C144.57,176.95 144.58,176.92 147.00,177.56 C149.33,178.18 149.26,177.97 145.86,174.36 C143.86,172.24 141.52,169.10 140.65,167.38 C139.50,165.09 138.04,164.00 135.13,163.26 C131.51,162.34 131.12,162.44 130.60,164.38 C129.43,168.73 130.01,173.63 131.94,175.70 C133.01,176.85 133.61,178.06 133.27,178.39 C132.94,178.73 133.19,179.00 133.83,179.00 C134.48,179.00 135.00,179.45 135.00,180.00 C135.00,181.32 141.56,190.66 145.37,194.75 ZM 197.02 251.30 C199.19,252.82 204.97,252.36 205.50,250.62 C205.69,250.01 206.11,247.16 206.45,244.31 L 207.05 239.12 L 203.73 239.66 C201.76,239.98 198.84,239.54 196.58,238.60 C196.33,238.49 196.10,238.40 195.88,238.30 C193.71,237.39 192.75,236.99 192.47,237.27 C192.25,237.49 192.46,238.13 192.82,239.28 C192.87,239.43 192.92,239.58 192.97,239.75 C193.45,241.26 194.12,244.17 194.46,246.22 C194.80,248.27 195.95,250.55 197.02,251.30 ZM 206.88 217.38 C202.62,218.23 199.40,218.03 193.50,216.56 C188.77,215.39 189.07,215.34 199.00,215.76 C208.74,216.17 209.35,216.09 207.37,214.63 C205.11,212.96 196.64,212.29 191.50,213.39 C188.95,213.93 189.10,213.74 192.50,212.14 C195.36,210.80 197.03,210.53 198.35,211.22 C199.37,211.75 201.08,211.95 202.16,211.67 C204.38,211.09 209.98,213.92 209.99,215.62 C210.00,216.24 208.59,217.03 206.88,217.38 ZM 226.27 313.90 C218.42,314.90 211.26,316.32 210.28,317.09 C208.71,318.30 208.72,318.20 210.37,316.28 C211.54,314.90 213.77,313.91 216.37,313.62 C218.64,313.36 225.20,312.64 230.94,312.00 C236.69,311.37 242.69,310.18 244.29,309.35 C245.88,308.53 247.37,308.04 247.60,308.27 C248.93,309.60 238.59,312.33 226.27,313.90 ZM 148.76 129.75 C150.99,132.68 155.00,134.24 155.00,132.18 C155.00,131.72 153.44,129.16 151.54,126.48 C148.15,121.71 148.06,121.66 147.18,124.05 C146.46,125.99 146.79,127.16 148.76,129.75 ZM 236.24 126.18 C237.66,127.08 243.19,121.12 242.29,119.65 C241.99,119.17 242.29,118.44 242.96,118.03 C243.84,117.48 243.72,117.11 242.53,116.65 C241.49,116.25 241.14,116.42 241.57,117.12 C242.01,117.83 241.59,118.01 240.38,117.63 C238.89,117.17 238.13,117.92 236.74,121.21 C235.37,124.48 235.26,125.55 236.24,126.18 ZM 200.44 189.90 C201.69,191.92 198.05,191.69 196.11,189.61 C193.58,186.92 193.30,184.52 195.63,185.41 C196.52,185.75 197.85,185.54 198.58,184.93 C199.31,184.32 200.35,184.10 200.89,184.43 C202.07,185.16 201.93,189.00 200.73,189.00 C200.26,189.00 200.13,189.40 200.44,189.90 ZM 231.81 124.48 C232.90,125.57 233.68,124.89 235.31,121.47 C237.45,116.98 237.43,116.00 235.21,116.00 C233.96,116.00 233.09,117.21 232.35,119.98 C231.77,122.17 231.52,124.19 231.81,124.48 ZM 132.36 161.37 C135.26,162.57 138.00,161.95 138.00,160.11 C138.00,158.27 136.18,157.00 133.53,157.00 C131.86,157.00 130.85,160.75 132.36,161.37 ZM 240.28 128.30 C240.95,128.55 242.74,127.59 244.26,126.17 C246.71,123.89 246.86,123.43 245.54,122.11 C244.72,121.29 243.92,120.82 243.77,121.06 C243.62,121.30 242.49,122.93 241.27,124.68 C239.71,126.91 239.41,127.98 240.28,128.30 ZM 243.52 131.03 C243.85,131.56 244.34,132.00 244.62,132.00 C244.89,132.00 244.87,131.60 244.57,131.11 C244.27,130.63 244.70,129.66 245.53,128.97 C246.80,127.92 246.94,128.00 246.37,129.47 C245.79,131.00 245.98,131.08 247.79,130.11 C250.65,128.58 251.38,127.16 250.09,125.61 C249.50,124.90 249.13,124.10 249.26,123.85 C249.39,123.59 248.02,124.88 246.21,126.72 C244.40,128.56 243.19,130.50 243.52,131.03 ZM 251.00 144.06 C251.00,145.13 253.08,145.29 255.42,144.39 C257.00,143.79 257.69,140.00 256.22,140.00 C254.93,140.00 251.00,143.05 251.00,144.06 ZM 142.25 138.80 C143.13,139.86 143.61,139.82 144.83,138.60 C146.07,137.36 146.10,136.83 145.03,135.54 C143.86,134.13 143.61,134.15 142.45,135.74 C141.52,137.01 141.46,137.85 142.25,138.80 ZM 252.00 148.10 C252.00,148.59 252.64,149.00 253.42,149.00 C255.90,149.00 258.00,147.83 258.00,146.45 C258.00,145.39 257.36,145.33 255.00,146.15 C253.35,146.73 252.00,147.60 252.00,148.10 ZM 133.00 154.67 C133.00,155.42 134.08,156.00 135.50,156.00 C138.45,156.00 138.77,154.49 136.13,153.07 C134.11,151.99 133.00,152.55 133.00,154.67 ZM 172.00 166.00 C172.00,168.07 169.59,168.76 168.50,167.00 C167.66,165.65 168.79,164.00 170.56,164.00 C171.35,164.00 172.00,164.90 172.00,166.00 ZM 198.50 256.00 C199.28,257.26 201.06,257.26 203.00,256.00 C204.14,255.27 203.70,255.03 201.19,255.02 C199.24,255.01 198.13,255.41 198.50,256.00 ZM 223.00 160.50 C223.00,162.06 221.82,162.48 220.67,161.33 C219.52,160.18 219.94,159.00 221.50,159.00 C222.32,159.00 223.00,159.68 223.00,160.50 ZM 215.34 288.33 C214.97,288.70 215.19,289.00 215.83,289.00 C217.66,289.00 217.21,287.49 214.75,285.40 C212.50,283.50 212.50,283.50 214.25,285.58 C215.22,286.73 215.70,287.96 215.34,288.33 ZM 244.40 124.11 C244.59,124.32 243.90,125.37 242.87,126.42 C241.84,127.48 241.00,127.88 241.00,127.30 C241.00,126.14 243.84,123.48 244.40,124.11 Z" fill="rgb(126,76,129)"/>
<path d="M 242.83 214.35 C241.73,216.46 241.75,216.47 243.78,214.67 C244.91,213.66 247.79,212.61 250.17,212.34 C253.56,211.95 254.17,212.09 253.00,212.99 C251.78,213.92 251.92,214.01 253.76,213.49 C256.68,212.67 266.65,212.67 267.98,213.49 C268.54,213.83 269.00,213.70 269.00,213.20 C269.00,212.69 265.59,211.73 261.43,211.05 C257.42,210.41 253.71,210.30 250.66,210.66 C253.57,210.13 256.00,210.32 261.50,211.01 C266.45,211.63 271.37,212.31 272.43,212.52 C273.58,212.75 275.32,211.87 276.74,210.34 C279.03,207.86 279.11,207.29 278.78,195.13 C278.56,187.40 278.83,181.98 279.46,181.15 C280.03,180.41 282.41,177.82 284.75,175.40 C287.09,172.99 289.00,170.61 289.00,170.11 C289.00,169.62 289.70,168.94 290.56,168.61 C291.42,168.28 291.84,167.56 291.50,167.00 C291.16,166.44 291.57,165.72 292.43,165.39 C293.29,165.06 293.74,164.39 293.44,163.90 C293.13,163.40 293.28,163.00 293.77,163.00 C294.27,163.00 294.72,162.44 294.78,161.75 C294.84,161.06 296.17,156.90 297.73,152.50 C301.03,143.21 300.81,138.64 296.63,129.51 C295.24,126.46 294.04,123.63 293.97,123.23 C293.91,122.83 293.21,122.14 292.43,121.70 C291.64,121.26 291.00,120.39 291.00,119.76 C291.00,118.18 285.91,113.00 284.36,113.00 C283.67,113.00 282.74,112.44 282.30,111.75 C281.86,111.06 279.69,109.26 277.47,107.76 C271.16,103.49 262.95,95.89 263.56,94.90 C263.87,94.40 263.64,94.00 263.06,94.00 C262.48,94.00 262.00,93.32 262.00,92.50 C262.00,91.68 261.55,91.00 261.00,91.00 C260.45,91.00 260.08,90.66 260.19,90.25 C260.29,89.84 259.69,87.93 258.85,86.00 C257.41,82.67 252.54,64.62 252.51,62.50 C252.51,61.95 252.25,61.28 251.95,61.00 C251.65,60.72 250.20,58.41 248.73,55.87 C246.84,52.60 243.51,48.89 239.80,45.70 C243.46,48.83 246.75,52.42 248.55,55.49 C250.65,59.08 251.68,59.85 255.05,60.39 C260.70,61.30 282.04,72.46 292.61,80.03 C304.28,88.41 321.95,106.31 329.62,117.54 C362.23,165.27 366.73,225.43 341.47,276.13 C333.33,292.47 321.37,308.64 307.85,321.58 C300.79,328.34 289.28,337.00 287.35,337.00 C286.39,337.00 286.31,337.95 286.87,339.40 C285.10,336.14 283.19,331.93 280.78,326.13 C279.05,321.96 275.91,316.69 273.82,314.42 C269.82,310.08 256.43,301.70 251.75,300.61 C249.19,300.01 247.81,298.00 249.97,298.00 C250.50,298.00 250.67,297.30 250.34,296.44 C250.01,295.59 249.12,295.12 248.37,295.41 C247.62,295.70 247.00,295.61 247.00,295.20 C247.00,294.80 245.09,294.36 242.75,294.23 C236.33,293.87 234.51,293.42 234.38,292.15 C234.31,291.52 234.19,290.56 234.12,290.03 C234.06,289.50 233.35,289.31 232.56,289.61 C231.73,289.93 231.37,290.87 231.71,291.83 C232.19,293.19 232.04,293.27 230.95,292.25 C229.37,290.78 228.00,290.62 228.00,291.90 C228.00,292.21 228.56,292.68 229.40,293.14 C227.96,292.59 226.57,292.15 225.87,292.09 C226.08,291.81 226.46,291.47 226.99,291.01 C228.72,289.51 228.80,289.08 227.58,288.07 C226.71,287.34 224.82,287.13 222.72,287.52 C219.87,288.06 218.79,287.71 216.39,285.49 C214.80,284.01 213.50,282.38 213.50,281.87 C213.50,281.35 212.97,280.60 212.31,280.19 C211.96,279.97 211.48,279.39 211.01,278.63 C211.26,278.79 211.53,278.80 211.72,278.61 C212.18,278.15 211.66,275.52 210.20,271.00 C209.26,268.06 209.08,243.40 210.02,246.00 C210.71,247.90 210.86,247.12 210.65,242.75 C210.49,239.59 210.78,237.00 211.29,237.00 C211.80,237.00 211.93,237.74 211.58,238.64 C211.06,240.01 211.21,240.07 212.47,239.03 C213.30,238.34 213.72,237.36 213.41,236.86 C213.10,236.36 213.45,236.07 214.18,236.23 C214.90,236.38 215.38,235.90 215.23,235.18 C215.07,234.45 215.39,234.12 215.93,234.45 C216.46,234.78 217.39,234.14 217.99,233.03 C218.58,231.91 218.76,231.00 218.38,231.00 C218.00,231.00 218.49,230.11 219.48,229.02 C220.46,227.94 221.71,227.32 222.24,227.65 C222.84,228.02 222.94,227.38 222.50,226.00 C222.04,224.54 222.15,223.98 222.82,224.39 C223.39,224.74 224.19,224.51 224.59,223.86 C225.04,223.13 224.88,222.96 224.15,223.40 C222.31,224.54 222.82,222.47 224.83,220.65 C225.84,219.74 226.96,219.30 227.33,219.66 C227.70,220.03 228.00,219.78 228.00,219.11 C228.00,218.43 228.43,218.15 228.96,218.47 C229.49,218.80 230.72,218.63 231.71,218.09 C232.69,217.56 234.62,216.89 236.00,216.60 C237.38,216.32 239.40,215.40 240.50,214.56 C242.22,213.25 241.81,213.26 237.50,214.66 C234.75,215.55 231.98,216.69 231.36,217.18 C230.73,217.67 229.83,217.97 229.36,217.84 C227.80,217.41 225.63,218.47 223.93,220.32 C225.81,217.97 227.41,217.24 232.06,215.96 C235.60,214.98 241.63,213.22 245.48,212.04 C244.23,212.65 243.32,213.42 242.83,214.35 ZM 192.66 251.23 C193.56,252.67 193.94,251.57 193.74,249.26 C194.91,256.06 194.88,260.56 193.93,267.09 C192.90,274.13 192.37,275.39 189.14,278.61 C184.38,283.34 171.65,289.45 161.00,292.12 C157.44,293.01 153.79,294.20 150.68,295.43 C150.21,295.46 149.90,295.44 149.77,295.36 C149.10,294.95 148.99,295.15 149.46,295.93 C149.00,296.12 148.56,296.31 148.13,296.50 C147.30,296.22 146.90,296.24 147.23,296.57 C147.31,296.64 147.35,296.74 147.37,296.85 C144.83,298.03 143.02,299.16 142.51,299.98 C142.17,300.54 140.94,301.00 139.79,301.00 C137.38,301.00 115.03,323.02 107.95,332.38 L 107.85 332.51 C106.66,334.07 105.64,335.42 104.76,336.60 C107.98,332.11 110.22,328.53 108.92,329.75 C108.19,330.44 107.21,331.00 106.73,331.00 C104.72,331.00 84.18,309.71 77.07,300.27 C41.97,253.62 36.27,189.98 62.45,136.99 C76.46,108.63 100.29,83.99 127.85,69.34 C133.58,66.31 134.55,66.05 134.84,67.51 C135.03,68.44 135.75,68.04 137.19,66.13 C136.16,68.05 136.07,69.52 136.28,72.55 C136.47,75.33 137.61,79.64 138.82,82.12 C141.40,87.45 141.54,89.00 139.47,89.00 C136.69,89.00 127.90,94.05 123.32,98.27 C112.57,108.18 108.44,127.43 112.50,148.66 C115.33,163.46 117.17,180.45 116.55,186.07 C116.16,189.63 116.49,193.97 117.46,198.07 C118.29,201.61 118.98,205.98 118.99,207.80 C119.01,212.49 124.42,218.02 128.26,217.29 C130.05,216.95 131.00,217.20 131.00,218.00 C131.00,218.76 131.81,219.02 133.11,218.68 C134.42,218.34 136.00,218.85 137.26,220.03 C138.38,221.08 139.65,221.72 140.07,221.46 C140.49,221.20 141.44,221.56 142.17,222.26 C143.52,223.56 149.00,224.04 149.00,222.86 C149.00,222.11 155.29,220.91 159.22,220.91 C160.72,220.91 163.09,221.67 164.49,222.58 C165.89,223.50 169.04,224.31 171.48,224.38 C174.66,224.47 176.33,225.06 177.38,226.50 C178.18,227.60 179.21,228.51 179.67,228.53 C179.77,228.54 179.99,228.62 180.29,228.76 C180.30,228.88 180.36,228.91 180.46,228.85 C181.56,229.40 183.57,230.62 185.66,232.02 C187.52,233.27 188.72,234.11 189.57,235.02 C189.51,235.01 189.45,235.00 189.39,235.00 C188.62,235.00 188.00,234.65 188.00,234.22 C188.00,233.13 181.99,229.67 181.31,230.36 C180.36,231.30 181.90,234.11 183.24,233.87 C183.93,233.75 185.72,234.25 187.21,234.97 C190.14,236.39 191.49,241.34 190.68,247.73 C190.45,249.50 190.63,250.73 191.06,250.46 C191.50,250.19 192.22,250.54 192.66,251.23 ZM 180.02 172.66 C180.02,173.12 180.41,172.90 180.88,172.16 C181.34,171.43 182.12,170.76 182.61,170.66 C183.10,170.57 183.39,170.16 183.25,169.75 C183.11,169.34 183.48,169.00 184.06,169.00 C184.11,169.00 184.16,169.00 184.21,168.99 C180.00,176.92 171.46,181.80 161.83,180.66 C156.90,180.08 151.69,177.63 147.71,174.49 C147.30,173.94 146.75,173.36 146.08,172.77 L 143.99 170.93 C143.44,170.28 142.96,169.62 142.55,168.96 C142.67,168.51 142.56,168.32 142.23,168.42 C141.95,167.91 141.71,167.40 141.52,166.90 C141.57,166.56 141.50,166.36 141.33,166.36 C141.12,165.65 141.00,164.96 141.00,164.28 C141.00,162.96 140.59,161.10 140.09,160.17 C139.59,159.24 139.51,156.67 139.92,154.46 C140.50,151.25 140.48,149.27 139.82,148.45 C140.50,148.60 141.00,148.47 141.00,148.09 C141.00,147.62 141.89,147.00 142.98,146.71 C144.60,146.29 144.80,146.51 144.05,147.91 C143.55,148.85 143.28,150.94 143.47,152.56 C143.65,154.18 143.43,155.95 142.98,156.50 C141.63,158.17 148.17,170.05 152.25,173.33 C157.29,177.39 165.18,177.58 172.23,173.81 C174.82,172.42 176.66,171.00 176.31,170.64 C175.96,170.29 176.15,170.00 176.75,170.00 C177.35,170.00 178.81,168.42 180.01,166.48 C181.74,163.69 182.09,161.90 181.73,157.73 C181.48,154.86 180.93,151.49 180.52,150.25 C179.59,147.47 181.26,147.26 183.83,149.83 C184.83,150.83 186.41,151.94 187.33,152.30 C187.46,152.35 187.59,152.42 187.70,152.50 C187.26,152.83 186.99,154.69 186.98,157.69 C186.96,161.52 186.11,165.09 184.60,168.21 C184.57,168.13 184.53,168.05 184.48,167.97 C183.84,166.94 179.99,170.99 180.02,172.66 ZM 247.72 155.88 C246.89,156.71 247.04,157.00 248.30,157.00 C248.77,157.00 249.14,156.89 249.41,156.70 C249.15,157.82 248.83,158.88 248.44,159.87 C248.23,160.38 247.99,160.88 247.72,161.39 C247.67,161.29 247.61,161.17 247.53,161.04 C246.97,160.14 245.68,160.94 243.02,163.86 C239.16,168.08 234.63,170.51 232.76,169.35 C232.17,168.99 231.98,169.16 232.33,169.72 C232.68,170.29 233.88,171.00 234.99,171.29 C236.23,171.61 236.76,171.42 236.36,170.78 C236.01,170.21 236.27,169.92 236.94,170.15 C237.28,170.26 237.59,170.48 237.81,170.73 C236.31,171.53 234.73,172.18 233.14,172.65 C228.17,174.09 227.22,174.09 221.55,172.55 C216.90,171.29 211.21,167.84 208.53,165.03 L 208.56 165.05 C209.41,165.76 210.03,165.92 209.94,165.42 C209.84,164.91 209.82,164.17 209.88,163.77 C210.01,162.95 217.72,166.74 218.51,168.01 C218.78,168.45 220.01,168.59 221.25,168.32 C223.06,167.92 223.21,168.04 222.00,168.90 C220.06,170.28 220.45,170.26 226.79,168.57 C231.40,167.34 242.00,161.61 242.00,160.34 C242.00,160.09 241.44,160.21 240.75,160.61 C240.06,161.01 240.40,160.32 241.50,159.07 C244.09,156.12 244.70,143.56 242.37,141.23 C241.55,140.41 241.13,139.10 241.43,138.32 C241.73,137.54 241.64,137.10 241.24,137.34 C240.83,137.59 239.96,137.21 239.30,136.50 C238.33,135.44 239.27,135.25 244.26,135.48 C244.89,135.51 245.49,135.54 246.04,135.59 C246.23,136.06 247.08,137.85 248.08,139.93 C249.96,143.83 250.55,149.57 249.79,154.69 C249.62,154.18 249.33,153.60 248.89,153.00 C247.96,151.70 247.88,151.72 248.33,153.13 C248.61,154.02 248.34,155.26 247.72,155.88 ZM 184.60 145.34 C184.43,145.31 184.22,145.36 184.00,145.50 C183.45,145.84 183.00,145.75 182.99,145.31 C182.99,144.86 181.16,144.43 178.93,144.35 C176.70,144.26 174.11,143.53 173.18,142.72 C169.39,139.39 164.48,137.74 158.20,137.69 C153.18,137.64 151.58,137.99 150.85,139.31 C150.33,140.24 149.14,141.03 148.20,141.07 C146.80,141.13 146.86,141.29 148.50,142.00 C150.33,142.78 150.28,142.87 147.97,142.93 C146.58,142.97 144.44,142.30 143.22,141.44 C143.10,141.35 142.97,141.27 142.84,141.19 C143.66,141.55 144.54,141.05 146.01,139.49 C147.30,138.12 148.74,137.00 149.22,137.00 C149.70,137.00 151.96,136.10 154.24,135.00 C163.42,130.56 176.33,134.08 182.50,142.69 C183.26,143.75 183.98,144.65 184.60,145.34 ZM 239.45 129.25 C239.35,129.30 239.22,129.36 239.09,129.45 C238.41,129.86 238.11,130.86 238.42,131.65 C238.73,132.45 238.54,132.83 238.01,132.51 C237.48,132.18 236.13,132.39 235.02,132.99 C233.42,133.85 233.00,133.77 233.00,132.61 C233.00,130.54 223.27,129.43 218.60,130.97 C216.64,131.61 214.59,131.86 214.03,131.52 C213.42,131.14 213.28,131.57 213.68,132.61 C214.09,133.69 213.95,134.09 213.29,133.68 C211.93,132.84 206.83,137.92 207.67,139.28 C208.05,139.89 207.82,140.01 207.11,139.57 C206.23,139.02 206.20,138.47 207.00,137.50 C207.66,136.71 207.72,135.95 207.16,135.60 C207.03,135.52 206.91,135.47 206.79,135.46 C207.59,134.57 208.69,133.54 210.23,132.12 C215.68,127.14 218.42,126.10 226.29,126.05 C231.60,126.01 236.28,127.18 239.45,129.25 ZM 207.20 163.20 C207.07,162.90 207.00,162.63 207.00,162.38 C207.00,161.62 206.59,161.00 206.08,161.00 C205.58,161.00 204.49,159.09 203.66,156.75 C203.04,154.99 202.66,154.05 202.42,153.82 C202.47,153.60 202.53,153.39 202.61,153.18 C203.82,149.73 206.74,149.03 206.71,152.20 C206.68,155.02 207.79,157.88 209.90,160.42 C210.78,161.48 210.93,162.01 210.23,161.60 C209.43,161.13 209.05,161.35 209.23,162.18 C209.38,162.90 208.94,163.39 208.25,163.25 C207.73,163.15 207.38,163.13 207.20,163.20 ZM 205.79 136.72 C205.57,137.92 205.80,139.70 206.62,140.87 C207.53,142.17 207.66,143.09 206.99,143.50 C206.43,143.85 206.23,144.56 206.55,145.09 C206.87,145.61 207.56,145.77 208.07,145.46 C209.80,144.39 209.01,145.68 206.77,147.60 C205.40,148.76 205.01,148.88 205.76,147.91 C206.43,147.03 206.69,146.02 206.32,145.66 C205.36,144.70 203.54,144.82 202.47,145.63 C202.66,145.33 202.85,145.10 203.02,145.00 C203.45,144.73 204.03,143.07 204.30,141.31 C204.63,139.22 204.92,138.01 205.79,136.72 ZM 253.93 316.42 C255.18,315.51 256.41,314.49 257.68,313.33 C261.06,310.24 261.67,309.16 260.88,307.74 C260.54,307.13 260.32,306.46 260.27,305.93 C262.59,307.14 264.00,308.26 264.00,309.06 C264.00,310.10 259.26,313.38 253.93,316.42 ZM 201.58 263.37 C200.86,264.16 199.80,263.93 199.34,262.17 C198.87,260.38 195.83,260.06 196.20,261.84 C196.28,262.21 196.00,264.30 195.58,266.50 C195.47,267.08 195.36,267.66 195.24,268.22 C195.78,265.41 196.16,262.19 196.10,260.82 C196.03,259.34 196.34,257.91 196.79,257.63 C198.27,256.72 199.74,258.47 199.62,261.00 C199.54,262.61 200.04,263.50 201.00,263.50 C201.22,263.50 201.42,263.46 201.58,263.37 ZM 143.43 300.47 C142.95,301.57 144.18,304.42 146.48,307.07 C144.39,305.06 142.57,302.95 142.14,301.81 C141.98,301.37 142.53,300.81 143.43,300.47 ZM 215.34 288.33 C215.62,288.05 215.39,287.24 214.83,286.36 C215.20,286.75 215.51,287.00 215.62,287.00 C216.00,287.00 216.09,286.83 215.92,286.51 C217.30,288.00 217.32,289.00 215.83,289.00 C215.19,289.00 214.97,288.70 215.34,288.33 ZM 219.50 230.00 C219.16,230.55 219.36,231.00 219.94,231.00 C220.52,231.00 221.00,230.55 221.00,230.00 C221.00,229.45 220.80,229.00 220.56,229.00 C220.32,229.00 219.84,229.45 219.50,230.00 ZM 210.27 277.27 C210.15,277.01 210.03,276.74 209.92,276.48 C209.23,274.78 208.59,266.85 208.26,258.82 C208.66,266.56 209.43,274.33 210.27,277.27 ZM 238.79 170.19 C237.72,169.12 238.69,168.57 240.90,168.82 C240.22,169.30 239.52,169.76 238.79,170.19 ZM 242.56 132.08 C242.44,132.03 242.31,131.98 242.17,131.92 C240.51,131.18 239.41,130.15 239.73,129.63 C239.76,129.58 239.78,129.53 239.81,129.49 C240.64,130.07 241.35,130.72 241.94,131.43 C242.15,131.68 242.35,131.90 242.56,132.08 ZM 253.43 303.06 C249.59,302.09 244.63,300.66 240.12,299.25 C241.85,299.76 243.59,300.23 245.21,300.63 C248.10,301.34 250.91,302.18 253.43,303.06 ZM 247.51 161.77 C247.14,162.41 246.72,163.04 246.26,163.65 C246.41,163.18 246.43,162.68 246.27,162.26 C245.83,161.12 246.04,160.90 246.98,161.49 C247.20,161.62 247.37,161.72 247.51,161.77 ZM 244.59 165.63 C244.35,165.87 244.11,166.12 243.86,166.36 C244.18,165.87 243.93,165.96 243.10,166.46 C242.11,167.05 241.92,166.94 242.45,166.09 C242.86,165.42 243.45,165.12 243.76,165.42 C244.00,165.66 244.29,165.71 244.59,165.63 ZM 171.73 142.40 C172.06,142.73 171.47,142.96 170.42,142.92 C169.25,142.87 169.01,142.64 169.81,142.32 C170.53,142.03 171.40,142.06 171.73,142.40 ZM 212.57 125.36 C212.22,125.62 212.00,125.60 212.00,125.22 C212.00,124.55 211.55,124.00 211.00,124.00 C210.93,124.00 210.86,124.01 210.80,124.03 C210.95,123.89 211.13,123.78 211.32,123.71 C212.04,123.43 212.57,124.00 212.57,125.07 C212.57,125.17 212.57,125.26 212.57,125.36 ZM 152.02 124.98 L 153.33 126.75 C155.44,129.60 156.31,130.70 157.85,131.06 C157.70,131.14 157.65,131.24 157.72,131.36 C159.42,134.11 156.00,130.53 153.20,126.63 ZM 180.67 226.63 C179.53,225.66 178.51,225.00 178.10,225.00 C177.63,225.00 175.21,223.03 172.33,220.36 C174.93,222.69 177.44,224.60 178.54,225.02 C179.83,225.50 180.50,225.99 180.67,226.63 ZM 226.05 180.02 C224.82,179.71 223.56,179.31 222.29,178.84 C219.86,177.93 217.43,176.52 215.14,174.80 C218.50,177.14 222.40,178.96 226.05,180.02 ZM 228.50 294.05 C229.13,294.35 229.69,294.61 230.20,294.84 C229.84,294.71 229.48,294.57 229.11,294.43 C226.61,293.43 225.63,293.02 225.70,292.46 C226.12,292.82 227.14,293.41 228.50,294.05 ZM 202.78 158.67 C203.76,161.49 205.68,164.87 208.00,167.90 C205.51,164.83 203.64,161.58 202.78,158.67 ZM 212.13 126.46 C211.88,126.22 211.12,126.49 210.43,127.06 C209.56,127.78 208.98,127.77 208.51,127.02 C208.97,127.76 209.66,127.69 210.74,126.80 C211.60,126.08 212.35,125.64 212.40,125.82 C212.41,125.85 212.45,125.86 212.52,125.87 C212.45,126.38 212.30,126.63 212.13,126.46 ZM 179.46 135.28 C179.38,135.62 179.49,136.09 179.74,136.62 C178.77,137.31 178.80,137.03 179.34,135.61 C179.38,135.49 179.42,135.38 179.46,135.28 ZM 186.50 325.51 C193.80,327.13 206.03,327.29 217.86,326.30 C206.05,327.33 193.98,327.17 186.50,325.51 ZM 186.26 146.89 C186.21,146.96 186.13,147.00 186.02,147.00 C185.46,147.00 185.00,146.52 185.00,145.94 C185.00,145.88 184.99,145.82 184.98,145.76 C185.53,146.34 185.97,146.73 186.26,146.89 ZM 216.49 122.00 C217.12,121.58 217.70,121.12 218.01,120.77 C218.00,120.81 218.00,120.85 218.00,120.88 C218.00,121.50 217.35,122.00 216.56,122.00 C216.53,122.00 216.51,122.00 216.49,122.00 ZM 164.11 131.18 C166.29,131.34 168.75,131.76 170.48,132.31 C168.66,131.85 166.30,131.45 164.11,131.18 ZM 183.98 229.60 C184.77,229.99 185.62,230.47 186.43,230.99 C185.90,230.90 184.98,230.37 183.98,229.60 ZM 208.22 242.10 C208.27,241.58 208.32,241.15 208.39,240.81 C208.78,238.77 210.84,235.67 214.03,232.31 C210.83,235.80 208.79,238.86 208.41,240.76 C208.34,241.14 208.28,241.58 208.22,242.10 ZM 148.44 177.29 C148.90,178.00 148.36,177.92 147.00,177.56 L 146.96 177.55 C147.69,177.69 148.18,177.58 148.44,177.29 ZM 188.96 156.01 C189.11,158.47 188.59,161.85 187.39,165.36 C188.46,162.22 189.01,158.62 188.96,156.01 ZM 181.20 296.98 C183.04,294.59 185.12,291.61 186.79,288.99 C185.19,291.59 183.16,294.52 181.20,296.98 ZM 142.53 141.02 C141.51,140.46 140.46,140.23 140.00,140.50 C140.01,140.50 140.02,140.49 140.03,140.48 C140.61,140.12 141.67,140.31 142.38,140.90 C142.43,140.94 142.48,140.98 142.53,141.02 ZM 216.00 230.21 C218.37,227.60 220.91,224.53 222.33,222.53 C221.24,224.20 218.64,227.35 216.00,230.21 ZM 189.82 282.73 C189.58,282.59 189.13,282.49 188.56,282.43 C189.17,282.29 189.60,282.26 189.72,282.39 C189.79,282.46 189.82,282.57 189.82,282.73 ZM 199.63 238.38 C200.67,238.76 201.47,238.99 201.80,238.99 C201.91,238.99 202.02,238.99 202.14,238.98 C204.37,238.76 207.36,236.85 210.95,233.44 C216.03,228.60 222.32,220.75 229.26,210.47 C222.29,220.80 216.03,228.62 210.95,233.44 C207.33,236.89 204.32,238.81 202.14,238.98 C201.99,238.99 201.85,239.00 201.71,239.00 C201.40,239.00 200.64,238.77 199.63,238.38 ZM 168.41 216.60 C165.61,213.94 163.37,212.00 163.08,212.00 C162.72,212.00 160.21,209.75 157.50,207.00 C160.21,209.75 162.73,212.00 163.11,212.00 C163.44,212.00 165.69,213.97 168.41,216.60 ZM 201.80 143.59 C202.30,140.63 203.58,137.63 205.39,134.94 C203.64,137.58 202.38,140.55 201.80,143.59 ZM 172.57 132.98 C174.29,133.46 175.75,133.66 176.13,133.42 C176.64,133.11 176.98,133.22 176.91,133.68 C176.98,133.22 176.63,133.11 176.11,133.43 C175.62,133.74 174.06,133.53 172.57,132.98 ZM 146.93 298.07 C146.69,298.43 146.35,298.80 145.99,299.12 C146.00,299.09 146.00,299.07 146.00,299.04 C146.00,298.82 146.36,298.46 146.93,298.07 ZM 164.53 43.35 C168.91,41.14 173.61,39.15 178.50,37.48 C183.53,35.77 189.57,34.72 195.87,34.33 C189.57,34.72 183.53,35.77 178.50,37.49 C173.61,39.17 168.91,41.15 164.53,43.35 ZM 141.12 168.22 C141.23,168.40 141.35,168.59 141.48,168.79 C141.12,168.92 141.00,168.73 141.12,168.22 ZM 163.49 292.65 C167.61,291.56 171.22,290.71 172.25,290.66 C171.46,290.70 167.78,291.54 163.49,292.65 ZM 138.46 148.09 C138.23,148.23 138.19,148.49 138.38,148.80 C138.65,149.24 138.48,150.22 138.01,150.98 C138.48,150.22 138.60,149.16 138.27,148.63 C138.06,148.29 138.14,148.11 138.46,148.09 ZM 238.63 172.95 C238.75,173.16 238.89,173.36 239.03,173.53 C239.74,174.39 239.62,175.27 238.85,176.04 C239.62,175.24 239.66,174.30 238.87,173.35 C238.76,173.21 238.68,173.08 238.63,172.95 ZM 180.32 137.55 C180.43,137.70 180.55,137.85 180.67,138.00 C180.58,138.00 180.48,138.00 180.38,138.00 C180.22,138.00 180.21,137.83 180.32,137.55 ZM 142.97 170.90 C143.48,171.58 144.02,172.27 144.57,172.92 C143.90,172.23 143.35,171.52 142.97,170.90 ZM 213.17 124.74 C213.25,124.42 213.56,124.01 214.08,123.56 C213.90,123.77 213.72,123.99 213.56,124.22 C213.42,124.41 213.29,124.59 213.17,124.74 ZM 182.81 284.61 C182.88,284.90 182.70,284.99 182.27,284.90 C182.44,284.80 182.62,284.71 182.81,284.61 ZM 218.96 120.18 C219.41,120.10 219.95,120.15 220.45,120.34 C220.53,120.37 220.60,120.40 220.67,120.42 C220.48,120.40 220.25,120.36 220.00,120.29 C219.62,120.19 219.26,120.15 218.96,120.18 ZM 149.23 296.88 C149.40,296.81 149.60,296.74 149.81,296.66 C149.86,296.92 149.67,296.99 149.23,296.88 ZM 182.05 138.19 C181.86,137.85 182.10,137.98 182.79,138.51 C182.55,138.37 182.31,138.27 182.05,138.19 ZM 100.04 343.38 C100.39,342.60 101.03,341.64 102.01,340.33 C101.02,341.70 100.40,342.66 100.04,343.38 ZM 192.52 243.16 C192.22,241.89 191.91,240.58 191.67,239.48 C191.89,240.32 192.11,241.31 192.38,242.49 C192.43,242.72 192.48,242.94 192.52,243.16 ZM 231.80 294.15 C232.62,294.47 233.26,294.81 233.59,295.09 C233.19,294.83 232.56,294.49 231.80,294.15 ZM 184.85 283.69 C184.84,283.85 184.68,283.91 184.39,283.89 C184.54,283.82 184.70,283.76 184.85,283.69 ZM 145.82 177.26 C144.65,176.99 144.96,177.24 146.50,178.41 C144.80,177.12 144.55,176.93 145.82,177.26 ZM 179.55 135.00 C179.88,134.00 179.63,134.06 178.52,134.98 C179.72,133.99 179.93,133.97 179.55,135.00 ZM 242.32 169.78 C242.26,169.81 242.20,169.85 242.14,169.88 C241.81,170.06 241.51,170.21 241.23,170.33 C241.60,170.14 241.97,169.95 242.32,169.78 ZM 188.18 232.23 C188.43,232.44 188.68,232.64 188.90,232.85 C188.57,232.61 188.33,232.40 188.18,232.23 ZM 175.80 303.17 C175.89,303.04 176.27,302.62 176.93,301.90 ZM 221.29 119.36 C221.42,119.13 222.02,119.20 223.12,119.57 C222.06,119.22 221.44,119.15 221.29,119.36 ZM 250.83 137.00 C250.84,137.01 250.84,137.01 250.84,137.02 C251.07,137.71 250.79,137.99 250.22,137.64 C250.78,137.98 251.05,137.70 250.83,137.00 ZM 139.64 142.16 C140.02,142.64 140.76,142.92 141.57,142.61 C140.75,142.93 140.01,142.64 139.64,142.16 ZM 292.49 347.39 C292.78,347.68 293.07,347.97 293.37,348.26 L 293.94 348.81 L 293.87 348.75 C293.40,348.30 292.94,347.85 292.49,347.39 ZM 229.34 295.45 C229.25,295.41 229.17,295.37 229.09,295.34 C228.41,295.01 227.73,294.70 227.10,294.40 C227.77,294.71 228.48,295.04 229.21,295.39 C229.25,295.41 229.29,295.43 229.34,295.45 ZM 135.53 163.37 C135.91,163.47 136.26,163.59 136.59,163.71 C136.25,163.58 135.90,163.47 135.53,163.37 Z" fill="rgb(200,222,222)"/>
<path d="M 0.00 0.00 L 400.00 0.00 L 400.00 400.00 L 0.00 400.00 ZM 206.90 367.85 C216.27,362.70 223.98,361.55 234.50,363.72 C243.87,365.66 249.65,365.00 255.64,361.31 C263.40,356.54 267.19,355.66 276.38,356.49 C290.51,357.76 293.91,357.53 296.30,355.14 L 298.45 352.99 L 293.94 348.81 L 293.37 348.26 C293.07,347.97 292.78,347.68 292.49,347.39 C290.47,345.28 288.75,342.88 286.87,339.40 C286.31,337.95 286.39,337.00 287.35,337.00 C289.28,337.00 300.79,328.34 307.85,321.58 C321.37,308.64 333.33,292.47 341.47,276.13 C366.73,225.43 362.23,165.27 329.62,117.54 C321.95,106.31 304.28,88.41 292.61,80.03 C282.04,72.46 260.70,61.30 255.05,60.39 C251.68,59.85 250.65,59.08 248.55,55.49 C246.75,52.42 243.46,48.83 239.80,45.70 C236.67,43.00 233.26,40.66 230.20,39.25 C221.53,35.25 208.20,33.55 195.87,34.33 L 195.85 34.33 C189.56,34.72 183.53,35.77 178.50,37.48 C173.61,39.15 168.91,41.14 164.53,43.35 L 164.53 43.35 C153.70,48.81 144.77,55.66 139.42,62.82 C138.41,64.18 137.69,65.20 137.19,66.13 C135.75,68.04 135.03,68.44 134.84,67.51 C134.55,66.05 133.58,66.31 127.85,69.34 C100.29,83.99 76.46,108.63 62.45,136.99 C36.27,189.98 41.97,253.62 77.07,300.27 C84.18,309.71 104.72,331.00 106.73,331.00 C107.21,331.00 108.19,330.44 108.92,329.75 C110.22,328.53 107.98,332.11 104.76,336.60 C103.62,338.11 102.72,339.33 102.01,340.33 C101.03,341.64 100.39,342.60 100.04,343.38 C99.64,344.19 99.56,344.70 99.66,345.17 C99.74,345.52 99.92,345.84 100.13,346.25 C101.90,349.55 109.58,352.18 119.92,353.02 C128.62,353.74 132.16,354.36 143.00,357.07 C144.93,357.55 148.74,359.80 151.47,362.07 C160.40,369.46 163.05,370.40 177.00,371.05 C178.53,371.12 179.96,371.19 181.28,371.26 C193.91,371.86 197.65,372.04 200.92,370.89 C202.63,370.29 204.22,369.32 206.90,367.85 ZM 180.65 148.10 C180.20,148.32 180.11,149.04 180.52,150.25 C180.93,151.49 181.48,154.86 181.73,157.73 C182.09,161.90 181.74,163.69 180.01,166.48 C178.81,168.42 177.35,170.00 176.75,170.00 C176.15,170.00 175.96,170.29 176.31,170.64 C176.66,171.00 174.82,172.42 172.23,173.81 C165.18,177.58 157.29,177.39 152.25,173.33 C148.17,170.05 141.63,158.17 142.98,156.50 C143.43,155.95 143.65,154.18 143.47,152.56 C143.28,150.94 143.55,148.85 144.05,147.91 C144.65,146.78 144.64,146.42 143.76,146.55 C147.15,145.64 153.24,145.00 159.71,145.00 C167.22,145.00 175.74,146.36 180.65,148.10 ZM 207.20 163.20 C207.38,163.13 207.73,163.15 208.25,163.25 C208.94,163.39 209.38,162.90 209.23,162.18 C209.05,161.35 209.43,161.13 210.23,161.60 C210.93,162.01 210.78,161.48 209.90,160.42 C207.79,157.88 206.68,155.02 206.71,152.20 C206.74,149.03 203.82,149.73 202.61,153.18 C202.53,153.39 202.47,153.60 202.42,153.82 C202.36,153.76 202.31,153.75 202.27,153.79 C202.78,152.05 204.01,150.20 205.78,148.38 C206.01,148.22 206.34,147.96 206.77,147.60 C207.55,146.92 208.16,146.33 208.54,145.89 C213.01,142.33 219.30,139.14 225.92,137.44 C229.51,136.52 234.49,135.93 239.05,135.71 C238.87,135.89 238.98,136.14 239.30,136.50 C239.96,137.21 240.83,137.59 241.24,137.34 C241.64,137.10 241.73,137.54 241.43,138.32 C241.13,139.10 241.55,140.41 242.37,141.23 C244.70,143.56 244.09,156.12 241.50,159.07 C240.40,160.32 240.06,161.01 240.75,160.61 C241.44,160.21 242.00,160.09 242.00,160.34 C242.00,161.61 231.40,167.34 226.79,168.57 C220.45,170.26 220.06,170.28 222.00,168.90 C223.21,168.04 223.06,167.92 221.25,168.32 C220.01,168.59 218.78,168.45 218.51,168.01 C217.72,166.74 210.01,162.95 209.88,163.77 C209.82,164.17 209.84,164.91 209.94,165.42 C210.03,165.92 209.41,165.76 208.56,165.05 L 208.53 165.03 C207.91,164.37 207.45,163.75 207.20,163.20 ZM 205.79 136.72 C205.99,136.42 206.23,136.11 206.50,135.79 C206.82,135.92 206.91,135.82 206.77,135.49 L 206.79 135.46 C206.91,135.47 207.03,135.52 207.16,135.60 C207.72,135.95 207.66,136.71 207.00,137.50 C206.20,138.47 206.23,139.02 207.11,139.57 C207.82,140.01 208.05,139.89 207.67,139.28 C206.83,137.92 211.93,132.84 213.29,133.68 C213.95,134.09 214.09,133.69 213.68,132.61 C213.28,131.57 213.42,131.14 214.03,131.52 C214.59,131.86 216.64,131.61 218.60,130.97 C223.27,129.43 233.00,130.54 233.00,132.61 C233.00,132.86 233.02,133.06 233.07,133.22 C229.47,133.77 225.56,134.64 222.03,135.69 C216.07,137.47 209.60,140.91 207.28,143.22 C207.59,142.74 207.36,141.93 206.62,140.87 C205.80,139.70 205.57,137.92 205.79,136.72 ZM 210.27 277.27 C209.43,274.33 208.66,266.56 208.26,258.82 C207.98,252.16 207.92,245.42 208.22,242.10 C208.28,241.58 208.34,241.14 208.41,240.76 C208.79,238.86 210.83,235.80 214.03,232.31 C214.13,232.20 214.22,232.10 214.32,232.00 C214.86,231.44 215.42,230.84 216.00,230.21 C216.77,229.37 217.54,228.51 218.26,227.67 C218.28,227.68 218.30,227.69 218.32,227.70 C218.86,228.03 219.03,227.86 218.69,227.30 C218.67,227.28 218.66,227.25 218.65,227.22 C220.25,225.36 221.61,223.62 222.33,222.53 C222.43,222.39 222.53,222.25 222.62,222.12 C223.09,221.42 223.52,220.83 223.93,220.32 C224.09,220.14 224.26,219.98 224.43,219.81 C224.63,219.81 224.74,219.71 224.73,219.54 C226.27,218.18 228.04,217.48 229.36,217.84 C229.83,217.97 230.73,217.67 231.36,217.18 C231.98,216.69 234.75,215.55 237.50,214.66 C241.81,213.26 242.22,213.25 240.50,214.56 C239.40,215.40 237.38,216.32 236.00,216.60 C234.62,216.89 232.69,217.56 231.71,218.09 C230.72,218.63 229.49,218.80 228.96,218.47 C228.43,218.15 228.00,218.43 228.00,219.11 C228.00,219.78 227.70,220.03 227.33,219.66 C226.96,219.30 225.84,219.74 224.83,220.65 C222.82,222.47 222.31,224.54 224.15,223.40 C224.88,222.96 225.04,223.13 224.59,223.86 C224.19,224.51 223.39,224.74 222.82,224.39 C222.15,223.98 222.04,224.54 222.50,226.00 C222.94,227.38 222.84,228.02 222.24,227.65 C221.71,227.32 220.46,227.94 219.48,229.02 C218.49,230.11 218.00,231.00 218.38,231.00 C218.76,231.00 218.58,231.91 217.99,233.03 C217.39,234.14 216.46,234.78 215.93,234.45 C215.39,234.12 215.07,234.45 215.23,235.18 C215.38,235.90 214.90,236.38 214.18,236.23 C213.45,236.07 213.10,236.36 213.41,236.86 C213.72,237.36 213.30,238.34 212.47,239.03 C211.21,240.07 211.06,240.01 211.58,238.64 C211.93,237.74 211.80,237.00 211.29,237.00 C210.78,237.00 210.49,239.59 210.65,242.75 C210.86,247.12 210.71,247.90 210.02,246.00 C209.08,243.40 209.26,268.06 210.20,271.00 C211.66,275.52 212.18,278.15 211.72,278.61 C211.53,278.80 211.26,278.79 211.01,278.63 C210.86,278.39 210.71,278.12 210.56,277.85 C210.62,277.53 210.54,277.38 210.33,277.39 C210.31,277.35 210.29,277.31 210.27,277.27 ZM 171.73 142.40 C171.40,142.06 170.53,142.03 169.81,142.32 C169.46,142.46 169.31,142.58 169.35,142.68 C165.25,142.06 161.18,141.96 155.41,142.25 C152.99,142.38 151.05,142.44 149.48,142.45 C149.26,142.33 148.93,142.19 148.50,142.00 C146.86,141.29 146.80,141.13 148.20,141.07 C149.14,141.03 150.33,140.24 150.85,139.31 C151.58,137.99 153.18,137.64 158.20,137.69 C164.48,137.74 169.39,139.39 173.18,142.72 C174.11,143.53 176.70,144.26 178.93,144.35 C179.87,144.38 180.73,144.48 181.42,144.61 C180.09,144.67 176.82,144.21 173.33,143.43 C172.48,143.24 171.64,143.07 170.82,142.92 C171.61,142.90 172.02,142.68 171.73,142.40 ZM 192.66 251.23 C192.22,250.54 191.50,250.19 191.06,250.46 C190.63,250.73 190.45,249.50 190.68,247.73 C191.49,241.34 190.14,236.39 187.21,234.97 C185.72,234.25 183.93,233.75 183.24,233.87 C181.90,234.11 180.36,231.30 181.31,230.36 C181.99,229.67 188.00,233.13 188.00,234.22 C188.00,234.65 188.62,235.00 189.39,235.00 C189.45,235.00 189.51,235.01 189.57,235.02 C190.59,236.12 191.11,237.32 191.67,239.48 C191.91,240.58 192.22,241.89 192.52,243.16 C192.89,244.82 193.20,246.35 193.47,247.77 C193.34,249.10 193.41,249.51 193.70,249.04 C193.71,249.11 193.73,249.19 193.74,249.26 C193.94,251.57 193.56,252.67 192.66,251.23 ZM 242.83 214.35 C243.32,213.42 244.23,212.65 245.48,212.04 L 245.50 212.03 C247.63,211.38 249.21,210.93 250.66,210.66 C253.71,210.30 257.42,210.41 261.43,211.05 C265.59,211.73 269.00,212.69 269.00,213.20 C269.00,213.70 268.54,213.83 267.98,213.49 C266.65,212.67 256.68,212.67 253.76,213.49 C251.92,214.01 251.78,213.92 253.00,212.99 C254.17,212.09 253.56,211.95 250.17,212.34 C247.79,212.61 244.91,213.66 243.78,214.67 C241.75,216.47 241.73,216.46 242.83,214.35 ZM 172.00 166.00 C172.00,164.90 171.35,164.00 170.56,164.00 C168.79,164.00 167.66,165.65 168.50,167.00 C169.59,168.76 172.00,168.07 172.00,166.00 ZM 198.50 256.00 C198.13,255.41 199.24,255.01 201.19,255.02 C203.70,255.03 204.14,255.27 203.00,256.00 C201.06,257.26 199.28,257.26 198.50,256.00 ZM 223.00 160.50 C223.00,159.68 222.32,159.00 221.50,159.00 C219.94,159.00 219.52,160.18 220.67,161.33 C221.82,162.48 223.00,162.06 223.00,160.50 ZM 219.50 230.00 C219.84,229.45 220.32,229.00 220.56,229.00 C220.80,229.00 221.00,229.45 221.00,230.00 C221.00,230.55 220.52,231.00 219.94,231.00 C219.36,231.00 219.16,230.55 219.50,230.00 ZM 228.65 211.38 C229.18,210.54 229.74,209.67 230.33,208.79 C236.89,198.98 239.08,195.71 240.78,194.60 C239.11,195.82 236.67,199.49 229.26,210.47 C229.05,210.78 228.85,211.08 228.65,211.38 ZM 235.14 132.93 C236.17,132.41 237.37,132.21 237.93,132.46 C237.72,132.60 237.45,132.69 237.14,132.72 C236.49,132.77 235.82,132.84 235.14,132.93 ZM 215.51 290.26 C217.36,293.17 219.74,296.42 221.76,298.87 C221.67,298.76 221.57,298.66 221.47,298.55 C219.54,296.39 217.40,293.35 215.51,290.26 ZM 203.42 145.15 C204.27,144.87 205.26,144.92 205.98,145.38 C205.63,145.40 205.13,145.37 204.55,145.25 C204.12,145.17 203.74,145.13 203.42,145.15 ZM 202.78 158.67 L 202.78 158.67 C202.92,159.13 203.08,159.61 203.27,160.09 C202.47,158.30 202.00,156.70 202.00,155.54 C202.00,155.17 202.04,154.80 202.11,154.42 C202.10,154.60 202.09,154.81 202.08,155.05 C202.05,156.05 202.30,157.29 202.78,158.67 ZM 193.62 242.16 C193.40,241.23 193.17,240.37 192.97,239.75 C192.92,239.58 192.87,239.43 192.82,239.28 C192.59,238.55 192.42,238.02 192.39,237.68 C192.45,238.09 192.73,238.77 193.10,239.75 C193.34,240.36 193.51,241.21 193.62,242.16 ZM 201.80 143.59 C201.79,143.62 201.79,143.66 201.78,143.69 C202.21,140.93 203.24,138.23 204.29,136.73 C203.06,138.93 202.19,141.27 201.80,143.59 ZM 185.21 151.02 C184.71,150.64 184.22,150.22 183.83,149.83 C183.59,149.59 183.37,149.39 183.15,149.20 C183.75,149.54 184.20,149.89 184.46,150.24 C184.65,150.49 184.91,150.76 185.21,151.02 ZM 209.46 277.77 C209.09,277.86 208.97,277.53 209.11,276.76 C209.23,277.10 209.34,277.44 209.46,277.77 ZM 207.65 236.29 C205.48,237.94 203.62,238.86 202.14,238.98 C202.02,238.99 201.91,238.99 201.80,238.99 C201.59,238.99 201.21,238.90 200.70,238.74 C201.20,238.89 201.58,238.97 201.80,238.98 C203.11,239.00 204.98,238.17 207.13,236.66 C207.30,236.54 207.47,236.42 207.65,236.29 ZM 187.92 231.61 C187.78,231.36 187.47,231.15 187.08,231.06 C187.73,230.98 187.98,231.15 187.92,231.61 ZM 202.30 260.69 C202.19,259.14 202.35,258.39 202.93,258.20 C202.43,258.55 202.22,259.37 202.31,260.64 C202.32,260.82 202.33,260.99 202.33,261.15 C202.32,261.00 202.31,260.85 202.30,260.69 ZM 206.41 144.66 C206.36,144.22 206.57,143.76 206.99,143.50 C207.02,143.49 207.04,143.48 207.05,143.46 C206.64,143.92 206.41,144.33 206.41,144.66 ZM 207.68 131.96 C208.53,130.92 209.75,129.80 211.15,128.78 C209.90,129.71 208.74,130.78 207.68,131.96 ZM 211.54 282.81 C212.10,284.01 212.72,285.26 213.42,286.63 C212.69,285.27 212.05,283.97 211.54,282.81 ZM 194.69 247.22 C194.82,247.15 194.88,247.40 194.92,247.95 C194.83,247.71 194.75,247.47 194.69,247.22 ZM 188.96 156.01 C188.96,155.98 188.96,155.96 188.96,155.93 C189.13,158.38 188.62,161.77 187.39,165.36 C188.59,161.85 189.11,158.47 188.96,156.01 ZM 245.08 193.76 C246.99,193.23 249.44,191.99 251.78,190.43 C249.42,192.00 246.96,193.26 245.08,193.76 ZM 197.02 251.30 C197.98,251.96 199.64,252.25 201.23,252.22 C199.63,252.26 197.98,251.97 197.02,251.30 ZM 250.81 136.95 C250.75,136.79 250.60,136.64 250.38,136.48 C250.60,136.60 250.75,136.74 250.80,136.89 C250.80,136.91 250.81,136.93 250.81,136.95 ZM 192.90 237.19 C193.41,237.27 194.34,237.66 195.88,238.30 C196.10,238.40 196.33,238.49 196.58,238.60 C194.64,237.79 193.50,237.29 192.90,237.19 ZM 201.60 263.36 C201.46,263.52 201.31,263.63 201.15,263.70 C201.30,263.63 201.45,263.52 201.58,263.37 C201.59,263.37 201.59,263.37 201.60,263.36 ZM 141.00 148.06 C141.01,147.96 141.05,147.85 141.13,147.75 C141.05,147.85 141.01,147.96 141.00,148.06 Z" fill="rgb(254,254,254)"/>
<path d="M 186.50 325.51 C178.61,323.77 171.88,321.46 164.36,317.90 C160.98,316.31 157.72,315.00 157.11,315.00 C156.50,315.00 156.00,314.60 156.00,314.12 C156.00,313.64 154.55,312.64 152.78,311.91 C151.02,311.18 148.20,309.02 146.53,307.13 C143.57,303.75 142.34,300.00 144.21,300.00 C145.64,300.00 147.99,297.33 147.23,296.57 C146.86,296.20 147.41,296.22 148.44,296.62 C149.86,297.16 150.12,297.01 149.51,296.02 C148.98,295.17 149.08,294.93 149.77,295.36 C150.37,295.73 155.28,294.84 160.68,293.39 C166.08,291.93 171.29,290.70 172.25,290.66 C173.21,290.61 174.00,290.25 174.00,289.85 C174.00,289.45 175.59,288.56 177.53,287.85 C179.60,287.11 180.86,286.07 180.58,285.34 C180.27,284.54 180.67,284.32 181.71,284.72 C182.78,285.13 183.09,284.95 182.61,284.18 C182.13,283.40 182.46,283.24 183.61,283.68 C184.56,284.05 185.08,283.93 184.76,283.42 C184.45,282.91 185.50,282.45 187.10,282.39 C188.69,282.33 190.00,282.59 190.00,282.95 C190.00,284.59 182.48,295.93 178.69,300.00 C174.63,304.37 174.66,304.35 179.82,299.50 C188.03,291.78 192.60,282.21 195.58,266.50 C196.00,264.30 196.28,262.21 196.20,261.84 C195.83,260.06 198.87,260.38 199.34,262.17 C200.09,265.07 202.54,263.81 202.31,260.64 C202.19,258.90 202.62,258.00 203.59,258.00 C205.32,258.00 205.44,258.32 206.99,267.75 C207.65,271.74 208.55,274.78 209.00,274.50 C209.45,274.22 209.56,274.97 209.25,276.15 C208.87,277.62 209.05,278.09 209.83,277.60 C210.56,277.15 210.77,277.43 210.40,278.39 C209.58,280.55 216.28,292.75 221.47,298.55 C223.91,301.27 225.93,303.05 225.95,302.50 C225.97,301.95 224.53,299.94 222.75,298.04 C220.96,296.13 219.50,294.20 219.50,293.75 C219.50,293.30 218.84,292.52 218.03,292.02 C216.78,291.25 216.83,291.00 218.38,290.41 C219.50,289.98 220.53,290.24 221.06,291.10 C221.54,291.87 222.28,292.54 222.71,292.59 C223.15,292.63 226.01,293.87 229.09,295.34 C234.06,297.71 254.81,303.87 259.18,304.27 C260.10,304.36 260.64,304.78 260.37,305.21 C260.11,305.63 260.34,306.78 260.88,307.74 C261.67,309.16 261.06,310.24 257.68,313.33 C252.72,317.87 248.45,320.20 241.00,322.42 C226.47,326.75 199.11,328.30 186.50,325.51 ZM 226.27 313.90 C238.59,312.33 248.93,309.60 247.60,308.27 C247.37,308.04 245.88,308.53 244.29,309.35 C242.69,310.18 236.69,311.37 230.94,312.00 C225.20,312.64 218.64,313.36 216.37,313.62 C213.77,313.91 211.54,314.90 210.37,316.28 C208.72,318.20 208.71,318.30 210.28,317.09 C211.26,316.32 218.42,314.90 226.27,313.90 ZM 228.50 294.05 C226.30,293.01 225.01,292.13 225.63,292.08 C227.02,291.98 234.00,294.84 234.00,295.51 C234.00,296.37 232.60,296.00 228.50,294.05 ZM 213.87 285.25 C212.63,283.66 212.66,283.63 214.25,284.87 C215.92,286.18 216.45,287.00 215.62,287.00 C215.41,287.00 214.63,286.21 213.87,285.25 ZM 196.98 251.27 C195.89,250.51 194.97,249.12 194.93,248.19 C194.87,246.80 194.70,246.86 193.97,248.50 C193.35,249.90 193.25,249.30 193.62,246.50 C193.92,244.30 193.68,241.26 193.10,239.75 C191.86,236.52 191.71,236.57 196.58,238.60 C198.84,239.54 201.76,239.98 203.73,239.66 L 207.05 239.12 L 206.45 244.31 C206.11,247.16 205.69,250.01 205.50,250.62 C204.97,252.38 199.19,252.82 196.98,251.27 ZM 196.15 236.98 C193.76,235.90 191.38,235.26 190.87,235.58 C190.37,235.89 190.07,235.55 190.23,234.82 C190.38,234.10 189.75,233.56 188.83,233.63 C187.71,233.71 187.35,233.24 187.75,232.21 C188.20,231.04 187.83,230.81 186.17,231.25 C184.97,231.56 184.24,231.43 184.53,230.96 C185.19,229.88 181.51,227.83 180.58,228.75 C180.20,229.13 180.19,228.67 180.55,227.73 C181.03,226.49 180.48,225.75 178.54,225.02 C177.08,224.46 173.16,221.30 169.84,218.00 C166.52,214.70 163.49,212.00 163.11,212.00 C162.73,212.00 160.21,209.75 157.50,207.00 C154.79,204.25 151.97,202.00 151.24,202.00 C149.04,202.00 143.77,198.97 139.29,195.12 C136.97,193.13 133.49,190.23 131.56,188.67 C129.63,187.12 128.15,185.54 128.28,185.15 C128.40,184.77 127.50,183.39 126.28,182.08 C125.07,180.77 124.31,179.32 124.59,178.85 C124.88,178.38 124.74,178.00 124.27,178.00 C123.81,178.00 123.38,177.21 123.32,176.25 C123.26,175.29 122.87,170.31 122.46,165.19 L 121.71 155.88 L 125.43 152.37 C127.47,150.44 131.14,148.01 133.57,146.97 C136.01,145.92 138.00,144.68 138.00,144.21 C138.00,143.73 139.41,143.55 141.14,143.81 C143.25,144.12 144.06,143.91 143.61,143.18 C143.24,142.58 142.32,142.32 141.57,142.61 C139.93,143.24 138.54,141.40 139.98,140.51 C140.54,140.17 141.93,140.54 143.06,141.33 C144.67,142.46 147.40,142.66 155.41,142.25 C163.02,141.86 167.66,142.17 173.33,143.43 C177.54,144.37 181.43,144.85 181.99,144.51 C182.55,144.16 183.00,144.39 183.00,145.00 C183.00,145.61 183.45,145.84 184.00,145.50 C184.55,145.16 185.00,145.36 185.00,145.94 C185.00,146.52 185.46,147.00 186.02,147.00 C186.59,147.00 186.32,145.89 185.44,144.54 C184.55,143.19 184.09,141.67 184.40,141.16 C184.72,140.65 184.20,139.61 183.24,138.86 C181.63,137.60 181.61,137.65 182.97,139.50 C184.03,140.95 183.68,140.82 181.69,139.05 C180.13,137.65 179.18,135.98 179.49,135.16 C179.95,133.97 179.77,133.94 178.52,134.98 C177.11,136.15 176.55,135.70 176.91,133.68 C176.99,133.22 176.64,133.11 176.13,133.42 C175.63,133.73 173.25,133.29 170.86,132.44 C168.46,131.59 164.31,131.01 161.63,131.14 C156.90,131.39 156.67,131.27 153.33,126.75 L 149.89 122.11 L 153.94 121.02 C159.23,119.59 164.42,120.97 173.06,126.10 C180.04,130.25 182.00,130.81 182.00,128.65 C182.00,126.50 178.80,124.18 171.92,121.38 C166.32,119.10 164.52,118.83 157.84,119.28 C151.29,119.72 150.12,119.56 149.76,118.15 C149.19,115.87 151.24,103.00 152.17,103.00 C152.59,103.00 152.70,102.37 152.40,101.60 C151.31,98.76 154.03,99.07 160.68,102.54 C164.53,104.55 170.34,106.58 174.04,107.22 C180.11,108.25 181.12,108.14 188.30,105.67 C197.12,102.62 202.09,102.36 210.54,104.52 C216.85,106.14 231.00,112.08 231.00,113.12 C231.00,113.45 227.92,113.95 224.16,114.22 C214.49,114.91 202.00,120.80 202.00,124.65 C202.00,126.92 206.08,126.16 211.06,122.96 C216.45,119.50 225.72,116.00 229.48,116.00 C232.37,116.00 232.42,116.19 230.80,120.68 C229.65,123.87 229.40,124.00 224.55,123.88 C221.77,123.82 220.29,123.56 221.25,123.31 C222.21,123.06 223.00,122.44 223.00,121.93 C223.00,121.42 223.79,121.01 224.75,121.02 C226.16,121.03 226.23,121.20 225.10,121.92 C224.08,122.56 224.41,122.76 226.25,122.65 C227.66,122.57 228.62,122.20 228.40,121.84 C228.17,121.47 228.55,120.94 229.24,120.66 C229.93,120.38 229.38,120.19 228.00,120.25 C226.62,120.30 224.43,120.00 223.12,119.57 C221.49,119.03 220.96,119.13 221.43,119.88 C221.86,120.58 221.51,120.75 220.45,120.34 C219.54,119.99 218.51,120.11 218.15,120.60 C217.79,121.10 216.63,121.98 215.56,122.57 C212.35,124.35 212.34,126.20 215.55,124.98 C219.82,123.36 219.46,124.49 215.08,126.46 C210.18,128.68 205.50,133.39 206.55,135.07 C207.03,135.85 206.90,136.05 206.20,135.62 C204.72,134.71 202.16,139.78 201.66,144.65 C201.43,146.77 201.46,147.67 201.71,146.65 C202.04,145.31 202.83,144.93 204.55,145.25 C205.87,145.51 206.74,145.39 206.49,144.99 C205.43,143.27 214.18,138.03 222.03,135.69 C226.95,134.23 232.59,133.12 237.14,132.72 C238.04,132.64 238.57,132.04 238.32,131.39 C238.07,130.74 238.41,129.86 239.09,129.45 C239.77,129.02 240.05,129.11 239.73,129.63 C239.41,130.15 240.51,131.18 242.17,131.92 C244.88,133.11 245.60,133.03 248.99,131.12 C252.35,129.24 252.85,129.18 253.40,130.59 C253.73,131.46 253.75,132.59 253.44,133.09 C253.13,133.59 254.02,134.00 255.40,134.00 C260.26,134.00 268.61,137.86 269.91,140.69 C270.99,143.07 270.84,149.88 269.52,158.50 C268.33,166.30 263.21,178.24 258.28,184.69 C255.03,188.97 247.02,193.99 243.41,194.03 C240.19,194.07 240.14,194.12 230.33,208.79 C226.86,213.98 224.28,218.64 224.59,219.14 C224.90,219.64 224.70,219.93 224.14,219.77 C222.75,219.39 217.92,226.06 218.69,227.30 C219.03,227.86 218.86,228.03 218.32,227.70 C217.78,227.36 215.34,229.13 212.92,231.62 C208.47,236.20 204.20,239.02 201.80,238.98 C201.08,238.97 198.54,238.07 196.15,236.98 ZM 206.88 217.38 C208.59,217.03 210.00,216.24 209.99,215.62 C209.98,213.92 204.38,211.09 202.16,211.67 C201.08,211.95 199.37,211.75 198.35,211.22 C197.03,210.53 195.36,210.80 192.50,212.14 C189.10,213.74 188.95,213.93 191.50,213.39 C196.64,212.29 205.11,212.96 207.37,214.63 C209.35,216.09 208.74,216.17 199.00,215.76 C189.07,215.34 188.77,215.39 193.50,216.56 C199.40,218.03 202.62,218.23 206.88,217.38 ZM 145.37 194.75 C141.56,190.66 135.00,181.32 135.00,180.00 C135.00,179.45 134.48,179.00 133.83,179.00 C133.19,179.00 132.94,178.73 133.27,178.39 C133.61,178.06 133.01,176.85 131.94,175.70 C130.01,173.63 129.43,168.73 130.60,164.38 C131.12,162.43 131.50,162.34 135.17,163.27 C137.37,163.83 139.41,164.89 139.69,165.64 C139.98,166.38 140.61,166.74 141.09,166.44 C141.58,166.14 141.68,166.67 141.32,167.61 C140.87,168.77 141.04,169.09 141.82,168.61 C142.54,168.17 142.78,168.41 142.46,169.24 C142.18,169.97 143.42,171.91 145.22,173.54 L 148.49 176.50 L 146.00 173.50 L 143.50 170.50 L 146.08 172.77 C149.28,175.57 149.57,178.27 146.58,177.46 C144.51,176.90 144.51,176.91 146.50,178.41 C147.60,179.25 149.04,180.40 149.71,180.97 C150.37,181.53 151.50,182.03 152.21,182.07 C152.92,182.11 152.62,182.48 151.55,182.90 C149.89,183.55 150.12,183.79 153.05,184.47 C154.95,184.91 157.11,185.18 157.85,185.07 C158.67,184.94 158.91,185.34 158.46,186.07 C157.29,187.96 164.57,186.27 170.84,183.20 C177.54,179.92 185.27,171.59 187.39,165.36 C189.58,158.94 189.52,153.13 187.25,152.28 C186.29,151.92 185.03,151.00 184.46,150.24 C182.49,147.62 170.13,145.00 159.71,145.00 C149.92,145.00 141.00,146.47 141.00,148.09 C141.00,148.55 140.25,148.65 139.34,148.30 C138.38,147.93 137.93,148.07 138.27,148.63 C138.60,149.16 138.48,150.22 138.01,150.98 C137.31,152.12 136.87,152.14 135.59,151.08 C134.28,149.99 133.29,150.33 129.27,153.23 C125.34,156.07 124.53,157.18 124.64,159.58 C125.01,167.10 125.74,168.72 134.75,181.85 C137.63,186.06 140.29,190.18 140.64,191.00 C141.60,193.20 146.21,198.00 147.38,198.00 C147.94,198.00 147.03,196.54 145.37,194.75 ZM 200.44 189.90 C200.13,189.40 200.26,189.00 200.73,189.00 C201.93,189.00 202.07,185.16 200.89,184.43 C200.35,184.10 199.31,184.32 198.58,184.93 C197.85,185.54 196.52,185.75 195.63,185.41 C193.30,184.52 193.58,186.92 196.11,189.61 C198.05,191.69 201.69,191.92 200.44,189.90 ZM 249.40 188.50 C251.43,187.12 253.59,186.00 254.21,186.00 C254.83,186.00 255.05,185.72 254.71,185.38 C254.37,185.03 255.19,183.31 256.53,181.55 C263.09,172.95 266.37,163.34 267.50,149.40 L 268.16 141.31 L 264.83 139.92 C263.00,139.15 261.27,138.48 261.00,138.43 C260.73,138.37 259.67,137.96 258.65,137.52 C257.45,137.00 256.52,137.17 256.00,138.00 C255.56,138.71 254.46,139.01 253.55,138.66 C252.64,138.31 252.14,138.42 252.44,138.91 C252.74,139.39 252.36,140.03 251.59,140.33 C250.77,140.64 249.99,140.07 249.69,138.93 C249.38,137.75 249.59,137.25 250.22,137.64 C250.81,138.00 251.06,137.67 250.80,136.89 C250.15,134.95 234.27,135.30 225.92,137.44 C213.36,140.66 202.00,149.25 202.00,155.54 C202.00,159.38 207.12,167.93 212.13,172.42 C219.66,179.20 232.29,183.04 237.00,180.00 C238.10,179.29 237.30,178.99 234.00,178.89 L 229.50 178.75 L 233.84 178.05 C238.29,177.32 240.55,175.36 239.03,173.53 C238.56,172.97 238.17,172.06 238.16,171.52 C238.15,170.99 237.60,170.37 236.94,170.15 C236.27,169.92 236.01,170.21 236.36,170.78 C236.76,171.42 236.23,171.61 234.99,171.29 C233.88,171.00 232.68,170.29 232.33,169.72 C231.98,169.16 232.17,168.99 232.76,169.35 C234.63,170.51 239.16,168.08 243.02,163.86 C245.68,160.94 246.97,160.14 247.53,161.04 C248.07,161.93 247.91,162.06 246.98,161.49 C246.04,160.90 245.83,161.12 246.27,162.26 C246.88,163.86 244.81,166.47 243.76,165.42 C243.45,165.12 242.86,165.42 242.45,166.09 C241.92,166.94 242.11,167.05 243.10,166.46 C244.28,165.75 244.29,165.87 243.15,167.28 C242.41,168.19 241.51,168.90 241.15,168.85 C238.76,168.53 237.68,169.08 238.69,170.09 C239.48,170.88 240.44,170.82 242.14,169.88 C243.44,169.16 244.84,168.67 245.25,168.79 C245.66,168.90 245.89,168.44 245.75,167.75 C245.61,167.06 246.10,166.62 246.82,166.77 C247.55,166.93 247.85,166.57 247.49,165.98 C247.12,165.39 247.51,163.87 248.34,162.60 C249.17,161.33 250.49,158.09 251.28,155.40 C252.47,151.29 253.12,150.45 255.35,150.18 C257.86,149.88 258.00,150.10 258.00,154.25 C258.00,162.31 252.97,175.37 245.92,185.61 C244.32,187.95 243.00,190.12 243.00,190.43 C243.00,191.73 245.96,190.84 249.40,188.50 ZM 212.13 126.46 C212.37,126.71 212.57,126.08 212.57,125.07 C212.57,124.00 212.04,123.43 211.32,123.71 C210.63,123.97 210.16,124.71 210.28,125.34 C210.40,125.98 209.90,126.38 209.18,126.23 C208.45,126.07 208.15,126.43 208.51,127.02 C208.98,127.77 209.56,127.78 210.43,127.06 C211.12,126.49 211.88,126.22 212.13,126.46 ZM 142.25 138.80 C141.46,137.85 141.52,137.01 142.45,135.74 C143.61,134.15 143.86,134.13 145.03,135.54 C146.10,136.83 146.07,137.36 144.83,138.60 C143.61,139.82 143.13,139.86 142.25,138.80 ZM 148.76 129.75 C146.79,127.16 146.46,125.99 147.18,124.05 C148.06,121.66 148.15,121.71 151.54,126.48 C153.44,129.16 155.00,131.72 155.00,132.18 C155.00,134.24 150.99,132.68 148.76,129.75 ZM 243.52 131.03 C243.19,130.50 244.40,128.56 246.21,126.72 C248.02,124.88 249.39,123.59 249.26,123.85 C249.13,124.10 249.50,124.90 250.09,125.61 C251.38,127.16 250.65,128.58 247.79,130.11 C245.98,131.08 245.79,131.00 246.37,129.47 C246.94,128.00 246.80,127.92 245.53,128.97 C244.70,129.66 244.27,130.63 244.57,131.11 C244.87,131.60 244.89,132.00 244.62,132.00 C244.34,132.00 243.85,131.56 243.52,131.03 ZM 240.28 128.30 C239.41,127.98 239.71,126.91 241.27,124.68 C242.49,122.93 243.62,121.30 243.77,121.06 C243.92,120.82 244.72,121.29 245.54,122.11 C246.86,123.43 246.71,123.89 244.26,126.17 C242.74,127.59 240.95,128.55 240.28,128.30 ZM 244.40 124.11 C243.84,123.48 241.00,126.14 241.00,127.30 C241.00,127.88 241.84,127.48 242.87,126.42 C243.90,125.37 244.59,124.32 244.40,124.11 ZM 236.24 126.18 C235.26,125.55 235.37,124.48 236.74,121.21 C238.13,117.92 238.89,117.17 240.38,117.63 C241.59,118.01 242.01,117.83 241.57,117.12 C241.14,116.42 241.49,116.25 242.53,116.65 C243.72,117.11 243.84,117.48 242.96,118.03 C242.29,118.44 241.99,119.17 242.29,119.65 C243.19,121.12 237.66,127.08 236.24,126.18 ZM 231.81 124.48 C231.52,124.19 231.77,122.17 232.35,119.98 C233.09,117.21 233.96,116.00 235.21,116.00 C237.43,116.00 237.45,116.98 235.31,121.47 C233.68,124.89 232.90,125.57 231.81,124.48 ZM 180.02 172.66 C179.99,170.99 183.84,166.94 184.48,167.97 C184.83,168.53 184.64,169.00 184.06,169.00 C183.48,169.00 183.11,169.34 183.25,169.75 C183.39,170.16 183.10,170.57 182.61,170.66 C182.12,170.76 181.34,171.43 180.88,172.16 C180.41,172.90 180.02,173.12 180.02,172.66 ZM 132.36 161.37 C130.85,160.75 131.86,157.00 133.53,157.00 C136.18,157.00 138.00,158.27 138.00,160.11 C138.00,161.95 135.26,162.57 132.36,161.37 ZM 133.00 154.67 C133.00,152.55 134.11,151.99 136.13,153.07 C138.77,154.49 138.45,156.00 135.50,156.00 C134.08,156.00 133.00,155.42 133.00,154.67 ZM 247.72 155.88 C248.34,155.26 248.61,154.02 248.33,153.13 C247.88,151.72 247.96,151.70 248.89,153.00 C250.49,155.22 250.23,157.00 248.30,157.00 C247.04,157.00 246.89,156.71 247.72,155.88 ZM 252.00 148.10 C252.00,147.60 253.35,146.73 255.00,146.15 C257.36,145.33 258.00,145.39 258.00,146.45 C258.00,147.83 255.90,149.00 253.42,149.00 C252.64,149.00 252.00,148.59 252.00,148.10 ZM 251.00 144.06 C251.00,143.05 254.93,140.00 256.22,140.00 C257.69,140.00 257.00,143.79 255.42,144.39 C253.08,145.29 251.00,145.13 251.00,144.06 Z" fill="rgb(229,201,184)"/>
</g>
</svg>